<?xml version="1.0" encoding="UTF-8" standalone="no"?>
<svg
   xmlns:dc="http://purl.org/dc/elements/1.1/"
   xmlns:cc="http://creativecommons.org/ns#"
   xmlns:rdf="http://www.w3.org/1999/02/22-rdf-syntax-ns#"
   xmlns:svg="http://www.w3.org/2000/svg"
   xmlns="http://www.w3.org/2000/svg"
   xmlns:sodipodi="http://sodipodi.sourceforge.net/DTD/sodipodi-0.dtd"
   xmlns:inkscape="http://www.inkscape.org/namespaces/inkscape"
   id="Calque_1"
   data-name="Calque 1"
   viewBox="0 0 450.00001 300.00001"
   version="1.1"
   sodipodi:docname="leem.svg"
   width="450"
   height="300"
   inkscape:version="0.92.1 r15371">
  <metadata
     id="metadata77">
    <rdf:RDF>
      <cc:Work
         rdf:about="">
        <dc:format>image/svg+xml</dc:format>
        <dc:type
           rdf:resource="http://purl.org/dc/dcmitype/StillImage" />
        <dc:title>LEEM_logo_generique</dc:title>
      </cc:Work>
    </rdf:RDF>
  </metadata>
  <sodipodi:namedview
     pagecolor="#ffffff"
     bordercolor="#666666"
     borderopacity="1"
     objecttolerance="10"
     gridtolerance="10"
     guidetolerance="10"
     inkscape:pageopacity="0"
     inkscape:pageshadow="2"
     inkscape:window-width="1606"
     inkscape:window-height="791"
     id="namedview75"
     showgrid="false"
     inkscape:zoom="0.41627715"
     inkscape:cx="-361.53797"
     inkscape:cy="283.465"
     inkscape:window-x="0"
     inkscape:window-y="0"
     inkscape:window-maximized="0"
     inkscape:current-layer="Calque_1" />
  <defs
     id="defs4">
    <style
       id="style2">.cls-1{fill:#272e80;}</style>
  </defs>
  <title
     id="title6">LEEM_logo_generique</title>
  <rect
     class="cls-1"
     x="36.897129"
     y="19.538006"
     width="23.08"
     height="158.17"
     id="rect8"
     style="fill:#272e80" />
  <path
     class="cls-1"
     d="m 285.21713,110.49802 c 0,-11.529998 8.29,-19.829998 19.42,-19.829998 11.13,0 18.81,8.3 18.81,19.829998 v 67.26 h 0.13 v 0.24 h 23.06 v -67.5 c 0,-11.529998 8.29,-19.829998 19.42,-19.829998 11.13,0 18.81,8.3 18.81,19.829998 v 67.26 h 23.06 v -67.26 c 0,-23.670008 -19,-40.050008 -42.07,-40.050008 a 43.68,43.68 0 0 0 -30.77,12.09 43.3,43.3 0 0 0 -30.65,-12.09 c -23.06,0 -42.28,16.38 -42.28,40.050008 v 67.5 h 23.06 z"
     id="path10"
     inkscape:connector-curvature="0"
     style="fill:#272e80" />
  <path
     class="cls-1"
     d="m 112.50713,69.738012 c -23.060003,0 -42.280003,16.38 -42.280003,40.000008 v 29.66 c 0,23.67 19,40.05 42.070003,40.05 22.61,0 41.5,-15.74 42.25,-38.64 h -23.09 c -0.65,10.78 -8.69,18.41 -19.36,18.41 -11.12,0 -18.810003,-8.29 -18.810003,-19.82 v -7.61 h 61.290003 v -22 c 0,-23.670008 -19.02,-40.050008 -42.07,-40.050008 z m 19,43.290008 H 93.287127 v -3.24 c 0,-11.529998 8.290003,-19.819998 19.420003,-19.819998 11.13,0 18.81,8.29 18.81,19.819998 z"
     id="path12"
     inkscape:connector-curvature="0"
     style="fill:#272e80" />
  <path
     class="cls-1"
     d="m 208.26713,179.49802 c 22.6,0 41.49,-15.74 42.24,-38.64 h -23.08 c -0.65,10.78 -8.69,18.41 -19.36,18.41 -11.13,0 -18.81,-8.29 -18.81,-19.82 v -7.61 h 61.29 v -22 c 0,-23.670008 -19,-40.000008 -42.08,-40.000008 -23.08,0 -42.27,16.38 -42.27,40.000008 v 29.66 c 0,23.62 19.02,40 42.07,40 z m -19,-69.71 c 0,-11.529998 8.29,-19.819998 19.42,-19.819998 11.13,0 18.81,8.29 18.81,19.819998 v 3.21 h -38.24 z"
     id="path14"
     inkscape:connector-curvature="0"
     style="fill:#272e80" />
  <rect
     class="cls-1"
     x="37.757122"
     y="194.548"
     width="3.78"
     height="35.810001"
     id="rect16"
     style="fill:#272e80" />
  <path
     class="cls-1"
     d="m 73.807127,226.19802 -2.35,-2.11 a 10.54,10.54 0 0 1 -8,3.58 c -4.46,0 -8.39,-3.09 -8.93,-8.59 h 20.11 a 10.05,10.05 0 0 0 0,-1.18 c 0,-7.45 -4.31,-13.44 -11.82,-13.44 -7,0 -12.17,5.89 -12.17,13.25 0,7.9 5.7,13.24 12.66,13.24 a 13.1,13.1 0 0 0 10.5,-4.75 z m -11,-18.55 c 5.06,0 7.7,4 8.1,8.64 h -16.38 c 0.49,-4.96 3.83,-8.64 8.21,-8.64 z"
     id="path18"
     inkscape:connector-curvature="0"
     style="fill:#272e80" />
  <path
     class="cls-1"
     d="m 92.547127,215.88802 c -3.39,-1 -6.53,-2 -6.53,-4.36 v -0.1 c 0,-2.11 1.92,-3.68 4.91,-3.68 a 14.32,14.32 0 0 1 7.5,2.45 l 1.720003,-2.84 a 17.3,17.3 0 0 0 -9.120003,-2.8 c -5,0 -8.64,2.9 -8.64,7.26 v 0.1 c 0,4.66 4.42,6 8.39,7.16 3.34,0.93 6.33,1.92 6.33,4.47 v 0.09 c 0,2.46 -2.21,4 -5.25,4 a 14.84,14.84 0 0 1 -8.78,-3.24 l -1.91,2.7 a 17.45,17.45 0 0 0 10.49,3.73 c 5.06,0 9.000003,-2.8 9.000003,-7.61 v -0.1 c 0.08,-4.53 -4.190003,-6.05 -8.110003,-7.23 z"
     id="path20"
     inkscape:connector-curvature="0"
     style="fill:#272e80" />
  <path
     class="cls-1"
     d="m 148.73713,217.89802 c 0,-7.45 -4.32,-13.44 -11.82,-13.44 -7,0 -12.17,5.89 -12.17,13.25 0,7.9 5.69,13.24 12.66,13.24 a 13.1,13.1 0 0 0 10.45,-4.75 l -2.36,-2.11 a 10.51,10.51 0 0 1 -8,3.58 c -4.47,0 -8.39,-3.09 -8.93,-8.59 h 20.17 a 10.05,10.05 0 0 0 0,-1.18 z m -20.16,-1.61 c 0.49,-5 3.82,-8.64 8.24,-8.64 5.05,0 7.7,4 8.09,8.64 z"
     id="path22"
     inkscape:connector-curvature="0"
     style="fill:#272e80" />
  <path
     class="cls-1"
     d="m 161.11713,215.83802 c 0,-4.75 3.24,-7.94 7.6,-7.94 4.36,0 7,2.94 7,7.65 v 14.82 h 3.78 v -15.75 c 0,-6 -3.59,-10.16 -9.72,-10.16 a 9.61,9.61 0 0 0 -8.68,5 v -4.46 h -3.76 v 25.37 h 3.78 z"
     id="path24"
     inkscape:connector-curvature="0"
     style="fill:#272e80" />
  <path
     class="cls-1"
     d="m 190.83713,223.63802 c 0,5.15 3.09,7.17 7.17,7.17 a 9.6,9.6 0 0 0 4.56,-1.08 v -3.24 a 7.94,7.94 0 0 1 -3.68,0.88 c -2.55,0 -4.27,-1.13 -4.27,-4.22 v -14.81 h 8.05 v -3.34 h -8.05 v -7.65 h -3.78 v 7.65 h -3.53 v 3.34 h 3.53 z"
     id="path26"
     inkscape:connector-curvature="0"
     style="fill:#272e80" />
  <path
     class="cls-1"
     d="m 225.42713,208.62802 v -4.07 c -4.81,-0.19 -8.49,2.85 -10.35,7.06 v -6.62 h -3.78 v 25.37 h 3.78 v -10.11 c 0,-7.65 4.51,-11.63 10.05,-11.63 z"
     id="path28"
     inkscape:connector-curvature="0"
     style="fill:#272e80" />
  <path
     class="cls-1"
     d="m 243.12713,230.99802 a 13.1,13.1 0 0 0 10.45,-4.75 l -2.35,-2.11 a 10.52,10.52 0 0 1 -8,3.58 c -4.46,0 -8.39,-3.09 -8.93,-8.59 h 20.12 a 10.05,10.05 0 0 0 0.05,-1.18 c 0,-7.45 -4.32,-13.44 -11.83,-13.44 -7,0 -12.16,5.89 -12.16,13.25 0,7.85 5.69,13.24 12.65,13.24 z m -0.58,-23.3 c 5.05,0 7.7,4 8.09,8.64 h -16.34 c 0.49,-5.01 3.83,-8.69 8.25,-8.69 z"
     id="path30"
     inkscape:connector-curvature="0"
     style="fill:#272e80" />
  <path
     class="cls-1"
     d="m 276.53713,204.45802 c -4.66,0 -7.65,2.6 -9.71,5.64 v -5.1 h -3.78 v 33.21 h 3.78 v -12.7 a 11.45,11.45 0 0 0 9.71,5.4 c 6.13,0 12.12,-4.91 12.12,-13.25 0,-8.34 -6.04,-13.2 -12.12,-13.2 z m -0.69,23.06 c -4.71,0 -9.17,-3.92 -9.17,-9.86 a 9.43,9.43 0 0 1 9.17,-9.81 c 4.81,0 8.93,3.82 8.93,9.86 0,6.04 -4.04,9.81 -8.93,9.81 z"
     id="path32"
     inkscape:connector-curvature="0"
     style="fill:#272e80" />
  <path
     class="cls-1"
     d="m 297.57713,204.99802 v 25.37 h 3.78 v -10.11 c 0,-7.65 4.51,-11.63 10.05,-11.63 h 0.3 v -4.07 c -4.81,-0.19 -8.49,2.85 -10.35,7.06 v -6.62 z"
     id="path34"
     inkscape:connector-curvature="0"
     style="fill:#272e80" />
  <rect
     class="cls-1"
     x="319.50711"
     y="195.28802"
     width="4.3200002"
     height="4.1700001"
     id="rect36"
     style="fill:#272e80" />
  <rect
     class="cls-1"
     x="319.74713"
     y="204.99802"
     width="3.78"
     height="25.360001"
     id="rect38"
     style="fill:#272e80" />
  <path
     class="cls-1"
     d="m 342.85713,227.66802 a 14.85,14.85 0 0 1 -8.79,-3.24 l -1.91,2.7 a 17.5,17.5 0 0 0 10.5,3.73 c 5.05,0 9,-2.8 9,-7.61 v -0.1 c 0,-4.56 -4.22,-6.08 -8.15,-7.26 -3.38,-1 -6.52,-2 -6.52,-4.36 v -0.1 c 0,-2.11 1.91,-3.68 4.9,-3.68 a 14.35,14.35 0 0 1 7.51,2.45 l 1.72,-2.84 a 17.34,17.34 0 0 0 -9.13,-2.8 c -5,0 -8.63,2.9 -8.63,7.26 v 0.1 c 0,4.66 4.41,6 8.39,7.16 3.33,0.93 6.32,1.92 6.32,4.47 v 0.09 c 0.03,2.46 -2.17,4.03 -5.21,4.03 z"
     id="path40"
     inkscape:connector-curvature="0"
     style="fill:#272e80" />
  <path
     class="cls-1"
     d="m 382.19713,226.19802 -2.36,-2.11 a 10.52,10.52 0 0 1 -8,3.58 c -4.46,0 -8.38,-3.09 -8.92,-8.59 h 20.11 a 10.05,10.05 0 0 0 0,-1.18 c 0,-7.45 -4.32,-13.44 -11.82,-13.44 -7,0 -12.17,5.89 -12.17,13.25 0,7.9 5.69,13.24 12.66,13.24 a 13.13,13.13 0 0 0 10.5,-4.75 z m -11,-18.55 c 5.05,0 7.7,4 8.09,8.64 h -16.37 c 0.49,-4.96 3.82,-8.64 8.24,-8.64 z"
     id="path42"
     inkscape:connector-curvature="0"
     style="fill:#272e80" />
  <path
     class="cls-1"
     d="m 400.23713,227.66802 a 14.84,14.84 0 0 1 -8.78,-3.24 l -1.91,2.7 a 17.5,17.5 0 0 0 10.5,3.73 c 5.05,0 9,-2.8 9,-7.61 v -0.1 c 0,-4.56 -4.21,-6.08 -8.14,-7.26 -3.38,-1 -6.52,-2 -6.52,-4.36 v -0.1 c 0,-2.11 1.91,-3.68 4.9,-3.68 a 14.35,14.35 0 0 1 7.51,2.45 l 1.72,-2.84 a 17.34,17.34 0 0 0 -9.13,-2.8 c -5,0 -8.63,2.9 -8.63,7.26 v 0.1 c 0,4.66 4.41,6 8.39,7.16 3.33,0.93 6.32,1.92 6.32,4.47 v 0.09 c 0.02,2.46 -2.18,4.03 -5.23,4.03 z"
     id="path44"
     inkscape:connector-curvature="0"
     style="fill:#272e80" />
  <path
     class="cls-1"
     d="m 57.737127,257.12802 a 11.42,11.42 0 0 0 -9.71,-5.4 c -6.09001,0 -12.120006,4.91 -12.120006,13.25 0,8.34 5.999996,13.19 12.120006,13.19 4.66,0 7.65,-2.6 9.71,-5.64 v 5.1 h 3.78 v -35.81 h -3.78 z m -9,17.66 c -4.8,0 -8.920005,-3.83 -8.920005,-9.86 0,-6.18 4.000005,-9.82 8.920005,-9.82 a 9.45,9.45 0 0 1 9.18,9.82 c 0,5.93 -4.47,9.86 -9.18,9.86 z"
     id="path46"
     inkscape:connector-curvature="0"
     style="fill:#272e80" />
  <path
     class="cls-1"
     d="m 87.787127,266.78802 c 0,4.76 -3.29,7.95 -7.6,7.95 -4.47,0 -7,-2.95 -7,-7.66 v -14.81 h -3.78 v 15.73 c 0,6 3.58,10.15 9.72,10.15 a 9.68,9.68 0 0 0 8.68,-4.95 v 4.41 h 3.73 v -25.34 h -3.73 z"
     id="path48"
     inkscape:connector-curvature="0"
     style="fill:#272e80" />
  <path
     class="cls-1"
     d="m 143.36713,251.72802 a 10.11,10.11 0 0 0 -8.93,5 8.64,8.64 0 0 0 -8.15,-5 c -4.26,0 -6.52,2.31 -8.19,4.81 v -4.27 h -3.78 v 25.36 h 3.78 v -14.47 c 0,-4.66 3,-8 7.07,-8 4.07,0 6.57,2.84 6.57,7.56 v 14.91 h 3.73 v -14.63 c 0,-5 3.19,-7.85 7,-7.85 4.12,0 6.58,2.75 6.58,7.66 v 14.81 h 3.69 v -15.7 c 0,-6.27 -3.54,-10.19 -9.37,-10.19 z"
     id="path50"
     inkscape:connector-curvature="0"
     style="fill:#272e80" />
  <path
     class="cls-1"
     d="m 171.36713,251.72802 c -7,0 -12.16,5.89 -12.16,13.25 0,7.89 5.69,13.24 12.65,13.24 a 13.08,13.08 0 0 0 10.45,-4.76 l -2.35,-2.11 a 10.5,10.5 0 0 1 -8,3.58 c -4.46,0 -8.39,-3.09 -8.93,-8.58 h 20.12 a 10.14,10.14 0 0 0 0.05,-1.18 c 0,-7.46 -4.32,-13.44 -11.83,-13.44 z m -8.34,11.82 c 0.49,-4.95 3.83,-8.63 8.24,-8.63 5.06,0 7.71,4 8.1,8.63 z"
     id="path52"
     inkscape:connector-curvature="0"
     style="fill:#272e80" />
  <polygon
     class="cls-1"
     points="236.28,378.44 239.32,378.44 244.86,373.14 240.94,371.33 "
     id="polygon54"
     transform="translate(-67.26288,-130.00198)"
     style="fill:#272e80" />
  <path
     class="cls-1"
     d="m 209.97713,257.12802 a 11.46,11.46 0 0 0 -9.72,-5.4 c -6.08,0 -12.11,4.91 -12.11,13.25 0,8.34 6,13.19 12.11,13.19 4.66,0 7.66,-2.6 9.72,-5.64 v 5.1 h 3.76 v -35.81 h -3.77 z m -9,17.66 c -4.81,0 -8.93,-3.83 -8.93,-9.86 0,-6.18 4,-9.82 8.93,-9.82 a 9.44,9.44 0 0 1 9.17,9.82 c -0.03,5.93 -4.49,9.86 -9.2,9.86 z"
     id="path56"
     inkscape:connector-curvature="0"
     style="fill:#272e80" />
  <rect
     class="cls-1"
     x="222.08711"
     y="242.558"
     width="4.3200002"
     height="4.1700001"
     id="rect58"
     style="fill:#272e80" />
  <rect
     class="cls-1"
     x="222.33711"
     y="252.26799"
     width="3.78"
     height="25.360001"
     id="rect60"
     style="fill:#272e80" />
  <path
     class="cls-1"
     d="m 246.31713,274.83802 c -5.3,0 -9.32,-4.37 -9.32,-9.91 0,-5.54 3.93,-9.86 9.08,-9.86 3.43,0 5.69,1.71 7.7,3.82 l 2.5,-2.65 a 13.23,13.23 0 1 0 -10.15,22 c 4.75,0 7.8,-2.06 10.35,-4.91 l -2.41,-2.25 a 10.45,10.45 0 0 1 -7.75,3.76 z"
     id="path62"
     inkscape:connector-curvature="0"
     style="fill:#272e80" />
  <path
     class="cls-1"
     d="m 272.06713,251.92802 a 20.88,20.88 0 0 0 -9.22,2.11 l 1.13,3.09 a 17.64,17.64 0 0 1 7.7,-1.87 c 4.76,0 7.56,2.36 7.56,6.92 v 0.88 a 26.91,26.91 0 0 0 -7.8,-1.08 c -6.43,0 -10.85,2.85 -10.85,8.24 0,5.39 4.76,7.95 9.47,7.95 a 11.14,11.14 0 0 0 9.18,-4.36 v 3.82 h 3.63 v -15.5 c 0,-6.67 -3.88,-10.2 -10.8,-10.2 z m 7.21,16.38 c 0,4 -3.82,6.87 -8.48,6.87 -3.44,0 -6.38,-1.87 -6.38,-5.1 0,-3.23 2.65,-5.3 7.41,-5.3 a 26.37,26.37 0 0 1 7.45,1.08 z"
     id="path64"
     inkscape:connector-curvature="0"
     style="fill:#272e80" />
  <path
     class="cls-1"
     d="m 319.73713,251.72802 a 10.1,10.1 0 0 0 -8.92,5 8.64,8.64 0 0 0 -8.15,-5 c -4.27,0 -6.52,2.31 -8.19,4.81 v -4.27 h -3.74 v 25.36 h 3.78 v -14.47 c 0,-4.66 3,-8 7.06,-8 4.06,0 6.53,2.8 6.53,7.56 v 14.91 h 3.73 v -14.63 c 0,-5 3.19,-7.85 7,-7.85 4.12,0 6.58,2.75 6.58,7.66 v 14.81 h 3.77 v -15.7 c -0.02,-6.27 -3.6,-10.19 -9.45,-10.19 z"
     id="path66"
     inkscape:connector-curvature="0"
     style="fill:#272e80" />
  <path
     class="cls-1"
     d="m 347.73713,251.72802 c -7,0 -12.17,5.89 -12.17,13.25 0,7.89 5.69,13.24 12.66,13.24 a 13.08,13.08 0 0 0 10.51,-4.76 l -2.35,-2.11 a 10.52,10.52 0 0 1 -8,3.58 c -4.47,0 -8.39,-3.09 -8.93,-8.58 h 20.11 a 10.14,10.14 0 0 0 0,-1.18 c 0.01,-7.46 -4.3,-13.44 -11.83,-13.44 z m -8.34,11.82 c 0.49,-4.95 3.83,-8.63 8.24,-8.63 5.05,0 7.7,4 8.1,8.63 z"
     id="path68"
     inkscape:connector-curvature="0"
     style="fill:#272e80" />
  <path
     class="cls-1"
     d="m 378.46713,251.72802 a 9.62,9.62 0 0 0 -8.69,4.95 v -4.41 h -3.77 v 25.36 h 3.73 v -14.52 c 0,-4.76 3.24,-7.95 7.61,-7.95 4.37,0 7,2.95 7,7.66 v 14.81 h 3.78 v -15.75 c 0.05,-6.03 -3.53,-10.15 -9.66,-10.15 z"
     id="path70"
     inkscape:connector-curvature="0"
     style="fill:#272e80" />
  <path
     class="cls-1"
     d="m 409.16713,255.60802 v -3.34 h -8 v -7.65 h -3.78 v 7.65 h -3.53 v 3.34 h 3.53 v 15.3 c 0,5.15 3.09,7.16 7.16,7.16 a 9.5,9.5 0 0 0 4.57,-1.08 v -3.23 a 8.07,8.07 0 0 1 -3.68,0.88 c -2.55,0 -4.27,-1.13 -4.27,-4.22 v -14.81 z"
     id="path72"
     inkscape:connector-curvature="0"
     style="fill:#272e80" />
</svg>
