<svg id="Calque_1" data-name="Calque 1" xmlns="http://www.w3.org/2000/svg" viewBox="0 0 566.93 566.93"><defs><style>.cls-1{fill:#272e80;}</style></defs><title>LEEM_logo_generique</title><rect class="cls-1" x="104.16" y="149.54" width="23.08" height="158.17"/><path class="cls-1" d="M352.48,240.5c0-11.53,8.29-19.83,19.42-19.83s18.81,8.3,18.81,19.83v67.26h.13V308H413.9V240.5c0-11.53,8.29-19.83,19.42-19.83s18.81,8.3,18.81,19.83v67.26h23.06V240.5c0-23.67-19-40.05-42.07-40.05a43.68,43.68,0,0,0-30.77,12.09,43.3,43.3,0,0,0-30.65-12.09c-23.06,0-42.28,16.38-42.28,40.05V308h23.06Z"/><path class="cls-1" d="M179.77,199.74c-23.06,0-42.28,16.38-42.28,40v29.66c0,23.67,19,40.05,42.07,40.05,22.61,0,41.5-15.74,42.25-38.64H198.72c-.65,10.78-8.69,18.41-19.36,18.41-11.12,0-18.81-8.29-18.81-19.82v-7.61h61.29v-22C221.84,216.12,202.82,199.74,179.77,199.74Zm19,43.29H160.55v-3.24c0-11.53,8.29-19.82,19.42-19.82s18.81,8.29,18.81,19.82Z"/><path class="cls-1" d="M275.53,309.5c22.6,0,41.49-15.74,42.24-38.64H294.69c-.65,10.78-8.69,18.41-19.36,18.41-11.13,0-18.81-8.29-18.81-19.82v-7.61h61.29v-22c0-23.67-19-40-42.08-40s-42.27,16.38-42.27,40v29.66C233.46,293.12,252.48,309.5,275.53,309.5Zm-19-69.71c0-11.53,8.29-19.82,19.42-19.82s18.81,8.29,18.81,19.82V243H256.52Z"/><rect class="cls-1" x="105.02" y="324.55" width="3.78" height="35.81"/><path class="cls-1" d="M141.07,356.2l-2.35-2.11a10.54,10.54,0,0,1-8,3.58c-4.46,0-8.39-3.09-8.93-8.59H141.9a10.05,10.05,0,0,0,0-1.18c0-7.45-4.31-13.44-11.82-13.44-7,0-12.17,5.89-12.17,13.25,0,7.9,5.7,13.24,12.66,13.24A13.1,13.1,0,0,0,141.07,356.2Zm-11-18.55c5.06,0,7.7,4,8.1,8.64H121.79C122.28,341.33,125.62,337.65,130,337.65Z"/><path class="cls-1" d="M159.81,345.89c-3.39-1-6.53-2-6.53-4.36v-.1c0-2.11,1.92-3.68,4.91-3.68a14.32,14.32,0,0,1,7.5,2.45l1.72-2.84a17.3,17.3,0,0,0-9.12-2.8c-5,0-8.64,2.9-8.64,7.26v.1c0,4.66,4.42,6,8.39,7.16,3.34.93,6.33,1.92,6.33,4.47v.09c0,2.46-2.21,4-5.25,4a14.84,14.84,0,0,1-8.78-3.24l-1.91,2.7a17.45,17.45,0,0,0,10.49,3.73c5.06,0,9-2.8,9-7.61v-.1C168,348.59,163.73,347.07,159.81,345.89Z"/><path class="cls-1" d="M216,347.9c0-7.45-4.32-13.44-11.82-13.44-7,0-12.17,5.89-12.17,13.25,0,7.9,5.69,13.24,12.66,13.24a13.1,13.1,0,0,0,10.45-4.75l-2.36-2.11a10.51,10.51,0,0,1-8,3.58c-4.47,0-8.39-3.09-8.93-8.59H216A10.05,10.05,0,0,0,216,347.9Zm-20.16-1.61c.49-5,3.82-8.64,8.24-8.64,5.05,0,7.7,4,8.09,8.64Z"/><path class="cls-1" d="M228.38,345.84c0-4.75,3.24-7.94,7.6-7.94s7,2.94,7,7.65v14.82h3.78V344.62c0-6-3.59-10.16-9.72-10.16a9.61,9.61,0,0,0-8.68,5V335H224.6v25.37h3.78Z"/><path class="cls-1" d="M258.1,353.64c0,5.15,3.09,7.17,7.17,7.17a9.6,9.6,0,0,0,4.56-1.08v-3.24a7.94,7.94,0,0,1-3.68.88c-2.55,0-4.27-1.13-4.27-4.22V338.34h8.05V335h-8.05v-7.65H258.1V335h-3.53v3.34h3.53Z"/><path class="cls-1" d="M292.69,338.63v-4.07c-4.81-.19-8.49,2.85-10.35,7.06V335h-3.78v25.37h3.78V350.26c0-7.65,4.51-11.63,10.05-11.63Z"/><path class="cls-1" d="M310.39,361a13.1,13.1,0,0,0,10.45-4.75l-2.35-2.11a10.52,10.52,0,0,1-8,3.58c-4.46,0-8.39-3.09-8.93-8.59h20.12a10.05,10.05,0,0,0,.05-1.18c0-7.45-4.32-13.44-11.83-13.44-7,0-12.16,5.89-12.16,13.25C297.74,355.61,303.43,361,310.39,361Zm-.58-23.3c5.05,0,7.7,4,8.09,8.64H301.56C302.05,341.33,305.39,337.65,309.81,337.65Z"/><path class="cls-1" d="M343.8,334.46c-4.66,0-7.65,2.6-9.71,5.64V335h-3.78v33.21h3.78v-12.7a11.45,11.45,0,0,0,9.71,5.4c6.13,0,12.12-4.91,12.12-13.25S349.88,334.46,343.8,334.46Zm-.69,23.06c-4.71,0-9.17-3.92-9.17-9.86a9.43,9.43,0,0,1,9.17-9.81c4.81,0,8.93,3.82,8.93,9.86S348,357.52,343.11,357.52Z"/><path class="cls-1" d="M364.84,335v25.37h3.78V350.26c0-7.65,4.51-11.63,10.05-11.63h.3v-4.07c-4.81-.19-8.49,2.85-10.35,7.06V335Z"/><rect class="cls-1" x="386.77" y="325.29" width="4.32" height="4.17"/><rect class="cls-1" x="387.01" y="335" width="3.78" height="25.36"/><path class="cls-1" d="M410.12,357.67a14.85,14.85,0,0,1-8.79-3.24l-1.91,2.7a17.5,17.5,0,0,0,10.5,3.73c5.05,0,9-2.8,9-7.61v-.1c0-4.56-4.22-6.08-8.15-7.26-3.38-1-6.52-2-6.52-4.36v-.1c0-2.11,1.91-3.68,4.9-3.68a14.35,14.35,0,0,1,7.51,2.45l1.72-2.84a17.34,17.34,0,0,0-9.13-2.8c-5,0-8.63,2.9-8.63,7.26v.1c0,4.66,4.41,6,8.39,7.16,3.33.93,6.32,1.92,6.32,4.47v.09C415.36,356.1,413.16,357.67,410.12,357.67Z"/><path class="cls-1" d="M449.46,356.2l-2.36-2.11a10.52,10.52,0,0,1-8,3.58c-4.46,0-8.38-3.09-8.92-8.59h20.11a10.05,10.05,0,0,0,0-1.18c0-7.45-4.32-13.44-11.82-13.44-7,0-12.17,5.89-12.17,13.25,0,7.9,5.69,13.24,12.66,13.24A13.13,13.13,0,0,0,449.46,356.2Zm-11-18.55c5.05,0,7.7,4,8.09,8.64H430.18C430.67,341.33,434,337.65,438.42,337.65Z"/><path class="cls-1" d="M467.5,357.67a14.84,14.84,0,0,1-8.78-3.24l-1.91,2.7a17.5,17.5,0,0,0,10.5,3.73c5.05,0,9-2.8,9-7.61v-.1c0-4.56-4.21-6.08-8.14-7.26-3.38-1-6.52-2-6.52-4.36v-.1c0-2.11,1.91-3.68,4.9-3.68a14.35,14.35,0,0,1,7.51,2.45l1.72-2.84a17.34,17.34,0,0,0-9.13-2.8c-5,0-8.63,2.9-8.63,7.26v.1c0,4.66,4.41,6,8.39,7.16,3.33.93,6.32,1.92,6.32,4.47v.09C472.75,356.1,470.55,357.67,467.5,357.67Z"/><path class="cls-1" d="M125,387.13a11.42,11.42,0,0,0-9.71-5.4c-6.09,0-12.12,4.91-12.12,13.25s6,13.19,12.12,13.19c4.66,0,7.65-2.6,9.71-5.64v5.1h3.78V371.82H125Zm-9,17.66c-4.8,0-8.92-3.83-8.92-9.86,0-6.18,4-9.82,8.92-9.82a9.45,9.45,0,0,1,9.18,9.82C125.18,400.86,120.71,404.79,116,404.79Z"/><path class="cls-1" d="M155.05,396.79c0,4.76-3.29,7.95-7.6,7.95-4.47,0-7-2.95-7-7.66V382.27h-3.78V398c0,6,3.58,10.15,9.72,10.15a9.68,9.68,0,0,0,8.68-4.95v4.41h3.73V382.27h-3.73Z"/><path class="cls-1" d="M210.63,381.73a10.11,10.11,0,0,0-8.93,5,8.64,8.64,0,0,0-8.15-5c-4.26,0-6.52,2.31-8.19,4.81v-4.27h-3.78v25.36h3.78V393.16c0-4.66,3-8,7.07-8S199,388,199,392.72v14.91h3.73V393c0-5,3.19-7.85,7-7.85,4.12,0,6.58,2.75,6.58,7.66v14.81H220v-15.7C220,385.65,216.46,381.73,210.63,381.73Z"/><path class="cls-1" d="M238.63,381.73c-7,0-12.16,5.89-12.16,13.25,0,7.89,5.69,13.24,12.65,13.24a13.08,13.08,0,0,0,10.45-4.76l-2.35-2.11a10.5,10.5,0,0,1-8,3.58c-4.46,0-8.39-3.09-8.93-8.58h20.12a10.14,10.14,0,0,0,.05-1.18C250.46,387.71,246.14,381.73,238.63,381.73Zm-8.34,11.82c.49-4.95,3.83-8.63,8.24-8.63,5.06,0,7.71,4,8.1,8.63Z"/><polygon class="cls-1" points="236.28 378.44 239.32 378.44 244.86 373.14 240.94 371.33 236.28 378.44"/><path class="cls-1" d="M277.24,387.13a11.46,11.46,0,0,0-9.72-5.4c-6.08,0-12.11,4.91-12.11,13.25s6,13.19,12.11,13.19c4.66,0,7.66-2.6,9.72-5.64v5.1H281V371.82h-3.77Zm-9,17.66c-4.81,0-8.93-3.83-8.93-9.86,0-6.18,4-9.82,8.93-9.82a9.44,9.44,0,0,1,9.17,9.82C277.38,400.86,272.92,404.79,268.21,404.79Z"/><rect class="cls-1" x="289.35" y="372.56" width="4.32" height="4.17"/><rect class="cls-1" x="289.6" y="382.27" width="3.78" height="25.36"/><path class="cls-1" d="M313.58,404.84c-5.3,0-9.32-4.37-9.32-9.91s3.93-9.86,9.08-9.86c3.43,0,5.69,1.71,7.7,3.82l2.5-2.65a13.23,13.23,0,1,0-10.15,22c4.75,0,7.8-2.06,10.35-4.91l-2.41-2.25A10.45,10.45,0,0,1,313.58,404.84Z"/><path class="cls-1" d="M339.33,381.93a20.88,20.88,0,0,0-9.22,2.11l1.13,3.09a17.64,17.64,0,0,1,7.7-1.87c4.76,0,7.56,2.36,7.56,6.92v.88a26.91,26.91,0,0,0-7.8-1.08c-6.43,0-10.85,2.85-10.85,8.24s4.76,7.95,9.47,7.95a11.14,11.14,0,0,0,9.18-4.36v3.82h3.63v-15.5C350.13,385.46,346.25,381.93,339.33,381.93Zm7.21,16.38c0,4-3.82,6.87-8.48,6.87-3.44,0-6.38-1.87-6.38-5.1s2.65-5.3,7.41-5.3a26.37,26.37,0,0,1,7.45,1.08Z"/><path class="cls-1" d="M387,381.73a10.1,10.1,0,0,0-8.92,5,8.64,8.64,0,0,0-8.15-5c-4.27,0-6.52,2.31-8.19,4.81v-4.27H358v25.36h3.78V393.16c0-4.66,3-8,7.06-8s6.53,2.8,6.53,7.56v14.91h3.73V393c0-5,3.19-7.85,7-7.85,4.12,0,6.58,2.75,6.58,7.66v14.81h3.77v-15.7C396.43,385.65,392.85,381.73,387,381.73Z"/><path class="cls-1" d="M415,381.73c-7,0-12.17,5.89-12.17,13.25,0,7.89,5.69,13.24,12.66,13.24A13.08,13.08,0,0,0,426,403.46l-2.35-2.11a10.52,10.52,0,0,1-8,3.58c-4.47,0-8.39-3.09-8.93-8.58h20.11a10.14,10.14,0,0,0,0-1.18C426.84,387.71,422.53,381.73,415,381.73Zm-8.34,11.82c.49-4.95,3.83-8.63,8.24-8.63,5.05,0,7.7,4,8.1,8.63Z"/><path class="cls-1" d="M445.73,381.73a9.62,9.62,0,0,0-8.69,4.95v-4.41h-3.77v25.36H437V393.11c0-4.76,3.24-7.95,7.61-7.95s7,2.95,7,7.66v14.81h3.78V391.88C455.44,385.85,451.86,381.73,445.73,381.73Z"/><path class="cls-1" d="M476.43,385.61v-3.34h-8v-7.65h-3.78v7.65h-3.53v3.34h3.53v15.3c0,5.15,3.09,7.16,7.16,7.16a9.5,9.5,0,0,0,4.57-1.08v-3.23a8.07,8.07,0,0,1-3.68.88c-2.55,0-4.27-1.13-4.27-4.22V385.61Z"/></svg>