<?xml version="1.0" encoding="utf-8"?>
<!-- Generator: Adobe Illustrator 18.0.0, SVG Export Plug-In . SVG Version: 6.00 Build 0)  -->
<!DOCTYPE svg PUBLIC "-//W3C//DTD SVG 1.1//EN" "http://www.w3.org/Graphics/SVG/1.1/DTD/svg11.dtd">
<svg version="1.1" id="Calque_1" xmlns="http://www.w3.org/2000/svg" xmlns:xlink="http://www.w3.org/1999/xlink" x="0px" y="0px"
	 viewBox="0 0 8291.3 2267.7" enable-background="new 0 0 8291.3 2267.7" xml:space="preserve">
<g>
	<defs>
		<rect id="SVGID_1_" y="0" width="8291.3" height="2267.7"/>
	</defs>
	<clipPath id="SVGID_2_">
		<use xlink:href="#SVGID_1_"  overflow="visible"/>
	</clipPath>
	<path clip-path="url(#SVGID_2_)" fill="#004F9F" d="M5087.3,1551c-9.1,1.6-80.4,15.3-155.4,17.3c-133.7,3.7-250.2-49.8-251.3-146.3
		c-1.8-167.2,167.3-258.9,292-284.4c55.9-11.4,163.6-24,270.8,2.4l-62.3,149.4c-17.9-40.7-63.9-41.5-82.7-41.9
		c-45.5-1-83.2,11-111,23.8c-63,28.9-117.9,121.5-28.7,157.2c49.4,19.8,112.5,4,178.1-6.4L5087.3,1551z"/>
	<path clip-path="url(#SVGID_2_)" fill="#004F9F" d="M7693.9,1133.9l-107.4,291.8c1.5-29.4,7.3-145.4,10.9-212.3
		c1.5-27.5-4.5-48.6-17.6-62.5c-16.1-16.8-37.2-17-37.4-17H7303l-156.4,425.2h173.7l111-301.1l-13.1,301.1h291.3l156.6-425.2H7693.9
		z"/>
</g>
<polygon fill="#004F9F" points="6798.2,1417.8 6596.4,1417.8 6700.9,1133.9 6500.5,1133.9 6343.9,1559.1 6746.2,1559.1 "/>
<polygon fill="#004F9F" points="6347.6,1245.2 6388.8,1133.9 5959.5,1133.9 5802.9,1559.1 6237.2,1559.1 6279.3,1444.3 
	6039.6,1444.3 6057.1,1397.1 6280.9,1397.1 6319.3,1292.4 6095.5,1292.4 6112.6,1245.2 "/>
<polygon fill="#004F9F" points="5686.6,1559.1 5843.3,1133.9 5647.5,1133.9 5590.7,1287 5487.1,1287 5543.5,1133.9 5347,1133.9 
	5190.9,1559.1 5386.7,1559.1 5440,1415.1 5543.9,1415.1 5490.5,1559.1 "/>
<polygon fill="#004F9F" points="4531,1559.1 4687.5,1133.9 4481.6,1133.9 4324.9,1559.1 "/>
<g>
	<defs>
		<rect id="SVGID_3_" y="0" width="8291.3" height="2267.7"/>
	</defs>
	<clipPath id="SVGID_4_">
		<use xlink:href="#SVGID_3_"  overflow="visible"/>
	</clipPath>
	<path clip-path="url(#SVGID_4_)" fill="#004F9F" d="M4208.9,1559.1l156.5-425.2h-290.9l-150.4,228.4c0,0,9.6-119.5,12-148.3
		c1.8-21.9-0.9-80.1-54.3-80.1h-238.7l-156.6,425.2h186.7l113.4-307.5l-23.9,307.5h165.9l203.4-302.2L4021,1559.1H4208.9z"/>
</g>
<polygon fill="#004F9F" points="7030.4,1559.1 7186.9,1133.9 6981,1133.9 6824.4,1559.1 "/>
<g>
	<defs>
		<rect id="SVGID_5_" y="0" width="8291.3" height="2267.7"/>
	</defs>
	<clipPath id="SVGID_6_">
		<use xlink:href="#SVGID_5_"  overflow="visible"/>
	</clipPath>
	<path clip-path="url(#SVGID_6_)" d="M3766.8,789l-0.3-0.9c-8.6-24.8-31.8-55.7-70.1-64.5c-14-28.8-42.6-46.5-75.7-46.5
		c-7.8,0-14,1-17.8,1.8c-2.1,0.4-10.3,2.4-73.8,17.6l-93.4,22.3c8.2-23.5,7.1-47.9-3.3-68.9c-13-26.2-39-43.1-66.2-43.1
		c-9.7,0-19,2.1-27.6,6.2l-0.8,0.4c-3.6,1.8-10.2,5-176.6,113c-2.1,1.4-4.2,2.9-6.1,4.6c-80.9,70.5-110.3,111.8-117.3,122.6
		c-3.8,5.6-10.4,16.2-16.3,29.6c-4.3-2.2-8.6-4.2-12.9-6.1c-33.5-14.8-68.3-22.4-103.5-22.4c-63.8,0-108.9,24.8-120.9,32.3
		c-6.4,3.6-30,17.7-66.3,45.6c-14.3,11-27.5,24-39,38.7c-24.1,5.5-43.9,12.1-58.6,19.7c-18.5,9.5-37,24.1-56.8,39.6l-1.2,0.9
		c-3.4,2.6-6.8,5.3-10.2,8c-8.4,6.5-29.9,24.6-51.1,53.6l-2.4,0.5c-2.9,0.6-29.5,6.5-62.4,22.4c-8.2,4-16.5,8.4-24.5,13.3
		c-18.9,0.6-48.6,3.9-87.1,15.3l-1.6-0.3c-3.2-0.6-32.3-6.3-68.3-6.3c-15.3,0-29.9,1.1-43.2,3.1c-8.7,1.2-39.2,5.9-64.3,13.2
		c-12.1,3.5-43.3,14-78.3,36.5c-76-17.5-153.2-23.4-201.3-25.3c45.7-61.4,68.3-132.7,60.8-193.9c-14.2-114.9-92.1-182.8-120-203.6
		C1759.6,566.6,1620,481.2,1504.1,468c-22.8-26.5-66.5-42.8-115.3-42.8c-19.7,0-39.2,2.6-57.9,7.8
		c-61.7,17.1-110.5,64.2-120.1,115.3c-61.9,51.2-157.8,166.1-131.3,373c-23.3,31.5-68,111.5-37.5,232
		c21,82.9,72.4,142.6,149.2,173.8c-60,28.8-112.4,63.9-156.1,104.4c-2.6,2.5-5.3,4.9-7.8,7.4c-103.7,5.6-197.8,48.6-272.6,124.6
		c-79,80.4-119,177.3-138.7,244.4l-0.7,2.5h1716.5l0.2,0c11.4-1.8,34.4-8.2,56.3-16.9c29.4-11.7,51.5-24.9,67.4-40.5
		c35.1-4.7,62-13.9,80-20c0,0,5.3-1.8,7.1-2.4c31-10.1,101.9-47.4,128.1-98.9c52.9-20.3,92-47.1,116.4-79.7
		c46-7.9,81.7-28.1,101.1-39.1c45.9-26,78.2-51.5,98.8-78c16.9-21.8,27.3-38.5,35.2-56.8c15.7-8.2,33.3-18.9,56.4-34.4
		c80.3-53.9,97.4-151.9,99.1-163.1c0.4-2.4,0.7-4.7,1-7.1c4.1,0.3,8.1,0.4,12.2,0.4c80.8,0,186.1-50.7,242.9-78l0.9-0.4
		c8.8-4.2,16.3-7.9,20.1-9.4c19-7.9,57.7-28.8,97.8-55.8c50.9-34.2,86-66.1,104.3-94.8c3-4.7,5.3-9.7,7-14.9l33.1-20.5
		c9.6-5.9,17.6-14.9,22.8-25.5c9-5,16.7-9.6,19.1-11.1C3765.3,847,3776.4,817.8,3766.8,789"/>
	<path clip-path="url(#SVGID_6_)" fill="#FFFFFF" d="M882.5,1810.6H682c25.5-78.9,67-150.2,118.2-202.2
		c51.1-52,110.5-85.1,177.3-98.8c-24.1,32.7-43.8,67.9-59.1,105.5C883.3,1701.6,881.3,1777.4,882.5,1810.6"/>
	<path clip-path="url(#SVGID_6_)" fill="#FFFFFF" d="M969.2,1635.6c24.1-59.3,60.9-112.3,109.4-157.3c43.2-40.2,96-74.2,157.4-101.6
		c6-2.1,19.5-5.9,37-4.7c27.2,1.8,75.9,12.8,103.1,7.9c6-1,12.8-8.4-2.1-13.1c-4.4-1.4-42.5-17.3-37.5-36.2c0-0.2,0.2-0.8,0.2-0.8
		c1.4-5.1,8.3-11.1,18.2-11.9c43-4.1,68-8.9,79.7-10.5c7-1,12.5-2.5,13.7-6c1-2.9-1-4.3-8.7-3.9c-72.3,4.3-165.6-11.3-206.4-23.1
		c-68.3-21.6-111.7-67.5-129.2-136.8c-20.4-80.5,0.5-144.3,27.4-179.2c13.7-16.7,36.9-37.9,44-43.6c18.4-14.7,5.8-11.4-14.4-8.8
		c-14.6,1.9-18.7-4.5-19.7-10.4c-0.8-5.2-1.6-22.1-2.2-30.3c-1.9-61.7,8.9-117.3,32.4-165.9c25.2-52.3,60.8-87.2,87.8-108.1
		c11.3-8.2,27.9-19.8,39.8-26.1c18.8-9.9,8.3-16.5-15.4-11.4c0,0-7.4,2-5.4-4.4c0.4-1,0.7-2.1,1.2-3.1c1.7-3.8,3.9-7.3,6.2-10.7
		c13.2-17.1,35.7-33.7,62.4-41c50.1-13.9,98,0.4,108.7,16.1c1,2.5,0.8,4.9-2.8,6.3c-8.9,3.5-15,9.8-0.4,11.7
		c3.4,0.5,17.7,0,38.7,2.1c0.9,0.2,1.8,0.3,2.8,0.4c90,9.4,198.7,74.3,244.6,227c1.5,5.1,2.8,10.3,4.2,15.4
		c1.4,5.4,2.5,11.3,3.7,16.8c-10.8,2.4-14.4,9.6-3.8,13.2c6.9,2.4,14.9,7.2,21.2,11.5c0,0,0.1,0,0.1,0.1c0.1,0.1,0.3,0.2,0.5,0.3
		c1.1,0.8,2.2,1.6,3.3,2.4c2,1.5,6.1,4.6,9.8,7.5c38.9,31.8,78,85.2,86.4,153.7c7.2,58.4-25,122.5-63.3,166.1
		c-15,16.3-41.6,41.2-87.6,69.5c-10.3,6.3-0.9,14.2,50.4-4.2c4.6-1,11.6-4.2,15.9,0.1c4.9,4.9,6.1,27-11.9,47.8
		c-17.9,20.7,8.3,13.5,39.2-13.3c6-5.2,10.1-10.9,13-16.8c26.8,0,109.7,1.3,196.3,16.9c-18,19.1-33.2,40.5-45.3,63.9
		c-38.6,74.7-49.8,153.9-33.2,235.5c10.2,50.2,41.3,122.3,81,163c27.3,28,68.6,70.3,147.3,92.6c23.9,6.8,50.2,10.2,78.3,10.3l0,0
		H937.3C936.1,1784.6,936.8,1715.4,969.2,1635.6"/>
	<path clip-path="url(#SVGID_6_)" fill="#FFFFFF" d="M2321.7,1747.3c-7.3,1.2-37.7,8.3-75.3,8.3c-20.3,0-42.7-2.1-64.6-8.3
		c-62.5-17.7-94.4-48.8-122.9-78.1c-28.6-29.3-57.1-89.3-66.5-135.6c-9.4-46.3-14.2-117.4,28.2-199.3
		c42.4-81.9,121.1-112,144.6-118.8c23.5-6.9,55.7-11.3,55.7-11.3c2.6-0.4,5.2-0.7,7.8-1c-24.5,19.7-46.1,43.6-63.3,70.3
		c-25,38.7-40.5,82.8-44.7,127.5c-4.2,44.5,0.8,90.8,14.7,134c13.8,43.3,36.2,82.6,64.6,113.6c27.2,29.7,60.7,54.5,96.9,71.6
		c17.5,8.3,35.4,14.7,53.4,19.2C2336.8,1743.9,2325.8,1746.7,2321.7,1747.3"/>
	<path clip-path="url(#SVGID_6_)" fill="#FFFFFF" d="M2522.8,1669.9c-21.5,7.1-59.4,22.2-111.9,22.2c-1.6,0-3.2,0-4.8,0
		c-55-1-119.1-29.4-165.8-80.5c-46.8-51.1-72.3-129.2-65.1-205.4c7.2-76.2,53-139.8,108.5-175c12.8-8.1,26.2-14.3,39.3-18.9
		c5.6-2,11.1-3.8,16.4-5.4c-1,1.4-2,2.8-3,4.3c-56.8,84.2-52.8,191.3-25.1,255.1c14.4,33.2,31,61,50.8,84.8
		c26.1,31.6,57.6,55.7,93.4,71.7c33.1,14.8,68.1,22.2,103.9,22.2c3.8,0,7.6-0.1,11.4-0.3C2554,1656.2,2535.9,1665.6,2522.8,1669.9"
		/>
	<path clip-path="url(#SVGID_6_)" fill="#FFFFFF" d="M2636.1,1576.3c-21.3,7.4-47.4,13.7-76.5,13.7c-25.3,0-52.9-4.7-81.6-17.5
		c-61.7-27.5-95.4-80.5-116.2-128.2c-20.7-47.7-25.5-134.5,20.2-202.5c24.8-36.8,60.7-58.8,88.5-71.4
		c-18.3,53.4-26.6,136.4,32,235.1l0.4,0.7l0.4,0.7c29.6,46.7,68.1,82.8,114.4,107.2c27.4,14.4,57,24.2,87,29
		C2683.4,1557.9,2658.1,1568.7,2636.1,1576.3"/>
	<path clip-path="url(#SVGID_6_)" fill="#FFFFFF" d="M2856.8,1457.2c-24.9,14.1-59.7,32.9-103.8,34.2c-2,0.1-4,0.1-6,0.1
		c-65.7,0-145-31.5-197.2-114c-92.2-155.5,8.7-262.1,41.6-287.6c20.1-15.6,39.7-31.8,55.2-40.5c-7.3,20.5-10.1,36.4-11,41.7
		c-6.8,39.2-0.7,89.4,16.5,134.5c22.6,59.5,62.5,107.5,115.4,138.7c42.9,25.3,87.2,38.2,131.7,38.2c12.2,0,23.6-1,33.9-2.6
		C2912.3,1424.1,2878,1445.2,2856.8,1457.2"/>
	<path clip-path="url(#SVGID_6_)" fill="#FFFFFF" d="M3710.3,817.4c-5.4,3.4-12.5,7.5-19.2,11.1c-0.2-0.3-0.3-0.7-0.5-1
		c-9.5-15.9-22-25.7-37.3-29.3c-23.9-5.6-54,4-94.5,30.2c-59,38-150,59.5-150.9,59.7c-6.3,1.5-10.2,7.8-8.7,14.1
		c1.3,5.4,6.1,9.1,11.4,9.1c0.9,0,1.8-0.1,2.7-0.3c3.9-0.9,95.8-22.6,158.2-62.8c33.9-21.9,59.6-31,76.5-27
		c8.1,1.9,14.6,6.8,20.4,15.2c0,0,0,0,0,0c7.7,11.8,0.5,17.3-0.1,17.7c-0.5,0.3-29.7,18.3-41.6,25.7c-6-6.5-18.5-17.2-37.7-18.8
		c-21-1.8-42.7,7.8-64.6,28.4c-53.1,50.1-111,66.4-112,66.7c-6.2,1.7-9.9,8.1-8.2,14.3c1.4,5.2,6.1,8.7,11.3,8.7c1,0,2-0.1,3.1-0.4
		c2.6-0.7,64.2-17.8,122-72.3c16.6-15.7,32.7-23.3,46.6-22.1c13.5,1.2,21.6,10.2,23.7,12.9c0.5,0.8,3,4.9,0.3,9.1
		c-32.6,51.2-145.4,116.4-177.6,129.9c-24.4,10.3-120.1,61.9-199.1,78.5c-8.5,2.2-17.3,3.5-26.2,4.2c-0.9,0.1-1.8,0.1-2.7,0.2
		c-11.5,0.4-64.6,1.4-80.4-14.6c-22.8-23.1-31.1-6.6-24.1,23.3c-25,15.2-62.5,38-72.4,44.1c-25.9,15.8-59.8-1.9-65.6-1.9
		c-14-0.3,19.1,41.3,46.2,45.2c29.4,4.2,84.2-30.6,84.2-30.6l20.8-13.6c0,0,0,0.1,0,0.1c0,0-12.2,79.8-71.4,119.4
		c-36.6,24.6-52,32.1-66,38.4c-8.9,4.1-37.1,18.5-77.9,18.5c-28.9,0-64.3-7.2-103.7-30.5c-95.5-56.4-114.5-167.1-105.6-217
		c0,0,10.6-73.3,67.1-116.7c37.7-28.9,60.1-41.4,60.1-41.4s35.1-23.3,88.1-23.3c22.7,0,48.8,4.3,76.7,16.5
		c-8.3,5.9-15.5,12.2-19.5,18.2c-10.9,16.3-25.8,53.9-15.5,53.7c7.5-0.1,12.5-18.4,37.8-31.6c12.4-6.5,71.5-41.1,71.5-41.1
		s2.6-9.1,5.1-14.6c0,0,7-15.7,22.4-37.6c1-1.5,3.1-4.5,6.5-9c8.8-11.8,19.8-24.8,33.2-38c0,0,0,0,0,0c16.1-16.9,38-38.1,67.2-63.5
		c0,0,163.6-106.1,171.1-109.8c1.4-0.7,2.9-1,4.5-1c14.1,0,33.8,24.5,9.2,56.9c-20,26.4-42.9,43.8-61.2,57.9
		c-5.1,3.8-12.5,8.8-17.6,10.6c-24.7,8.9-57.7,28.2-62.6,32c-5.7,4.4-5.3,11.4,1.4,8.4c21.5-9.3,56.5-18.3,62.9-19.9
		c37.2-8.2,310.5-73.9,315.5-75c1.3-0.3,3.7-0.6,6.8-0.6c9.4,0,24.6,3.4,29.5,23.1c0.2,0.7,0.3,1.3,0.4,1.9L3400,830.7
		c-6.2,1.9-9.7,8.4-7.8,14.6c1.4,4.3,4.9,7.3,9,8.1c1.8,0.4,3.8,0.3,5.6-0.3l223.1-66.4c4.5-1,13-3.2,28.8-8.6l2.5-0.8
		c4.8-1.4,9.4-2.1,13.6-2.1c22.9,0,36.4,18.6,40.5,30.7C3717.1,811,3715.1,814.4,3710.3,817.4"/>
	<path clip-path="url(#SVGID_6_)" d="M1567.1,753.5c-0.1,15.2,2.3,31.3,6.1,45.9c4.6,14.8,10.1,29.4,19.3,42
		c7.8,10.8,17.1,21.4,30.1,25.6c-0.1,0-0.2,0-0.2,0c0,0,0.3,0.1,1.2,0.4c0.8,0.2,1.1,0.3,1.1,0.3c0,0,0,0-0.1,0
		c3.1,0.8,6.2,1.1,9.3,1.1c5.1,0,10.3-0.9,16.5-2.2c6.3-1.4,12.9-2.7,18.6-5.8c7-3.8,11-13,13.6-20.1c3-8.1,4.5-16.6,5-25.2
		c0.9-15.2-1.5-30.1-6-44.6c0.1,0.6,0.3,1.2,0.4,1.9c8.5,38.3-3.1,73.5-25.7,78.6c-22.8,5.2-48-21.6-56.4-59.9
		c-2.3-10.3-3.1-20.4-2.7-29.7c4.7,6.8,12,10.4,18.8,8.5c9.5-2.5,14.4-14.5,11.2-26.6c-2.8-10.7-11.1-17.9-19.4-17.8
		c4.7-6.8,10.7-11.4,17.8-13c14.7-3.4,30.5,6.7,42.1,24.6c-2.9-5.3-6.1-10.4-9.8-15.3c-8.9-11.9-20.8-23.3-35.8-26.4
		c-2.5-0.5-5.1-0.8-7.7-0.8c-13.2,0-26.7,6.4-35,16.3C1569.9,722.9,1567.2,738.9,1567.1,753.5 M1558.5,800
		c-4.5-16.4-10.1-42-8.7-66.3c1.9-35,19.8-54.7,41.2-61.4c26.4-8.3,54.3,4.8,70.2,25.2c8.9,11.4,18.3,27.8,25.1,44.7
		c2.6,5.7,5,11.7,7.2,18.2c6.7,19.4,9.6,38.1,8.6,55.8c-0.6,10.6-2.6,20.5-5.9,29.4c-3.6,9.8-9.2,21.8-20.3,27.8
		c-7.4,4-15.2,5.6-22.1,7.1l-0.3,0.1c-6.1,1.3-12.7,2.5-19.5,2.5c-4.2,0-8.2-0.4-12.2-1.4c-0.6-0.1-1.2-0.3-1.9-0.5l0,0
		c-0.1,0-0.2,0-0.3-0.1l0,0c-0.3-0.1-0.6-0.2-0.8-0.3l-0.2-0.1l-0.3-0.1c-17.4-5.6-28.7-18.8-37.4-30.9
		c-7.6-10.5-12.7-21.7-16.7-32.4l-0.1-0.2c0,0-0.9-2.3-2.2-6.4c-0.8-2.5-1.6-4.9-2.3-7.3l-0.1-0.3l-0.1-0.3
		C1559,802.1,1558.8,801,1558.5,800 M1623.7,867.3c0.3,0.1,0.7,0.2,1,0.3c-0.3-0.1-1.6-0.5-2-0.6
		C1623.1,867.1,1623.4,867.2,1623.7,867.3 M1364.6,877.9c9.4,17.8,21.2,31.4,33.2,38.5c5.9,3.5,12.4,5.2,19.6,5.2
		c6,0,12.7-1.1,20.6-3.4l0.4-0.1c3.4-0.9,13.6-3.8,19.1-6.2c10.1-4.3,18.6-18.6,22.6-38.2c1.5-7.2,2.2-14.8,2.4-22.4
		c-2.6,23.9-14.1,42.5-31.5,46.5c-25.3,6-53.5-21.1-62.9-60.4c-2.5-10.6-3.4-21-2.9-30.7c4.9,5.9,11.9,8.9,18.4,7
		c9.6-2.6,14.6-14.7,11.2-26.7c-2.8-9.7-10.1-16.5-17.9-17.5c5.2-7.3,12.1-12.3,20.2-14.2c18.5-4.4,38.4,8.9,51.6,31.6
		c-0.5-1.2-1-2.4-1.5-3.5c-12.7-25.3-34.7-51.5-76.6-40.3c-55.1,14.8-42.6,86.9-36.6,109.2C1356.9,861.3,1360.3,869.8,1364.6,877.9
		 M1350.5,885.4c-9.2-17.3-14.6-35.5-17.4-54.9c-2.7-18.8-3.8-38.4-0.4-57.2c3.3-18.4,11.7-35.5,26.8-46.5
		c12.4-9.1,28.7-14.6,44.5-14.6c4.2,0,8.4,0.4,12.4,1.2c39.8,8.2,58.4,40.7,74.2,86.5c17.3,50.2,5.3,112.8-26.8,126.6
		c-7.9,3.4-21.3,6.9-21.3,6.9c-8.4,2.4-16.7,4-25,4c-9.4,0-18.7-2.1-27.7-7.4C1372.9,920.2,1359.7,902.6,1350.5,885.4
		 M1670.2,1007.1c-50.3,27.1-107.5,42-163.9,49.7c15.3,7.2,31,12.9,48,14.2c15.4,1.2,30.7-1.2,45.4-5.7c15-4.6,29.4-11.4,41.5-21.5
		C1653.4,1033.7,1662.4,1020.8,1670.2,1007.1 M1745.6,958.5c-3.2,0.6-4.5-3.5-6.3-8.3c-9.9,12.8-30.3,32.8-33.1,36.3
		c-4.6,6-8.4,12.6-12,19.3c-6.1,11.1-12,22.3-19.4,32.6c-10,14-22.7,25.9-37.4,34.8c-28,16.9-63.3,24.9-95.7,19.6
		c-17.1-2.8-33.3-9.2-48.8-16.7c-12.6-6.1-25.8-14.1-40.1-14.8c-15.8,0.5-32,0.7-47.7-1.2c-5.4-0.6-10.1-2.7-11.9-8.4
		c-2.4-7.5,2.8-15.2,10.6-15.7l0,0c2.6,0,5.1,0.5,7.7,0.7c5.1,0.3,10.1,0.7,15.2,0.8c57,1.8,114.7-7.3,169.1-24
		c33.4-10.3,65.9-24.4,94.6-44.5c11.8-8.3,23.1-17.5,32.8-28.3c1.4-1.6,2.8-3.7,4.4-5.5c-1.1-0.6-2.1-1.2-2.9-1.5
		c-2.8-1-3.2-6.4,2.3-7.8c5.5-1.5,12.9,1.4,15.5,4.3c2.6,2.9,5.6,7.8,6.4,13.7C1749.8,950.1,1749.2,957.7,1745.6,958.5
		 M1402.2,1025.9c-14.7,10.1-18.3,18-20.4,22.8c-2.1,4.8-1.8,10-1.1,12.5c0.7,2.5-0.1,5-2.4,6h0h-0.1c-0.1,0.1-0.2,0.1-0.3,0.1
		c-2.3,0.9-4.2,0.5-5.2-0.1c-1.3-0.6-2.3-1.7-2.8-3.1c-4.2-9.6,0.1-29.9,10.9-39.6c3.9-3.7,9.7-7.8,14.4-9.7c1.8-0.8,7.3-2.9,10,1.1
		C1407.9,1020.1,1404.7,1024.1,1402.2,1025.9"/>
</g>
<polygon fill="#004F9F" points="425.2,1842.5 4426.5,1842.5 4465.7,1736.2 464.3,1736.2 "/>
<g>
	<defs>
		<rect id="SVGID_7_" y="0" width="8291.3" height="2267.7"/>
	</defs>
	<clipPath id="SVGID_8_">
		<use xlink:href="#SVGID_7_"  overflow="visible"/>
	</clipPath>
	<path clip-path="url(#SVGID_8_)" fill="#004F9F" d="M4640.1,1799.9c-12.6,35.1-30.4,44.4-61.9,44.4c-38.3,0-48.9-19.6-39.7-44.9
		l22.8-63.2h18.8l-22.9,63.3c-7.8,21.3-0.3,30.3,23.8,30.3c17.8,0,30.8-4.3,40.3-30.3l22.9-63.3h18.8L4640.1,1799.9z"/>
	<path clip-path="url(#SVGID_8_)" fill="#004F9F" d="M4705.8,1750.5l-33.6,92h-17.5l38.8-106.3h16.7c5.6,0,9.3,1.6,10.5,7.1
		l29.2,85.3l33.8-92.4h17.8l-38.8,106.3h-26.4L4705.8,1750.5z"/>
</g>
<polygon fill="#004F9F" points="4836.4,1736.2 4924.9,1736.2 4919.7,1750.1 4850.2,1750.1 4838.3,1782.4 4900.9,1782.4 
	4895.8,1796.3 4833.3,1796.3 4821.5,1828.6 4891.2,1828.6 4886.1,1842.5 4797.6,1842.5 "/>
<g>
	<defs>
		<rect id="SVGID_9_" y="0" width="8291.3" height="2267.7"/>
	</defs>
	<clipPath id="SVGID_10_">
		<use xlink:href="#SVGID_9_"  overflow="visible"/>
	</clipPath>
	<path clip-path="url(#SVGID_10_)" fill="#004F9F" d="M5007.3,1749.7l-33.9,92.9h-17.5l38.8-106.3h17.6c8,0,11,2.7,11.5,10.6
		l7.3,79.1l71.8-89.8h31.1l-38.6,106.3h-18.9l33.6-92l-74.5,92h-20.1L5007.3,1749.7z"/>
</g>
<polygon fill="#004F9F" points="5167.2,1736.2 5255.7,1736.2 5250.6,1750.1 5181,1750.1 5169.1,1782.4 5231.8,1782.4 5226.6,1796.3 
	5164.1,1796.3 5152.3,1828.6 5222,1828.6 5217,1842.5 5128.4,1842.5 "/>
<polygon fill="#004F9F" points="5240.9,1842.5 5279.6,1736.2 5298.4,1736.2 5259.7,1842.5 "/>
<polygon fill="#004F9F" points="5331.7,1736.2 5350.5,1736.2 5316.9,1828.2 5385.4,1828.2 5380.2,1842.5 5292.9,1842.5 "/>
<polygon fill="#004F9F" points="5437.5,1736.2 5456.3,1736.2 5422.6,1828.2 5491.2,1828.2 5486,1842.5 5398.7,1842.5 "/>
<polygon fill="#004F9F" points="5543.2,1736.2 5631.8,1736.2 5626.6,1750.1 5557,1750.1 5545.1,1782.4 5607.8,1782.4 5602.6,1796.3 
	5540.1,1796.3 5528.3,1828.6 5598,1828.6 5593,1842.5 5504.4,1842.5 "/>
<g>
	<defs>
		<rect id="SVGID_11_" y="0" width="8291.3" height="2267.7"/>
	</defs>
	<clipPath id="SVGID_12_">
		<use xlink:href="#SVGID_11_"  overflow="visible"/>
	</clipPath>
	<path clip-path="url(#SVGID_12_)" fill="#004F9F" d="M5731.5,1799.9c-12.6,35.1-30.4,44.4-61.9,44.4c-38.3,0-48.9-19.6-39.7-44.9
		l22.8-63.2h18.8l-22.9,63.3c-7.8,21.3-0.3,30.3,23.8,30.3c17.8,0,30.8-4.3,40.3-30.3l22.9-63.3h18.8L5731.5,1799.9z"/>
	<path clip-path="url(#SVGID_12_)" fill="#004F9F" d="M5798.6,1750.1l-15.2,41.6h25.5c24,0,33.6-3.1,38.5-17.3
		c6.2-17.6,1.3-24.4-25.2-24.4H5798.6z M5811.3,1805.6h-33l-13.5,36.9H5746l38.8-106.3h41.7c37.7,0,48,16.4,38.9,40.7
		c-6.5,17.9-20.3,24.7-37,26.3l15.4,39.3h-19.2L5811.3,1805.6z"/>
</g>
<polygon fill="#004F9F" points="5908.4,1736.2 5996.9,1736.2 5991.7,1750.1 5922.1,1750.1 5910.3,1782.4 5972.9,1782.4 
	5967.7,1796.3 5905.3,1796.3 5893.4,1828.6 5963.1,1828.6 5958.1,1842.5 5869.6,1842.5 "/>
<polygon fill="#004F9F" points="6061.3,1802.2 6046.6,1842.5 6027.8,1842.5 6066.6,1736.2 6155.2,1736.2 6150,1750.3 6080.3,1750.3 
	6066.5,1788 6129.5,1788 6124.4,1802.2 "/>
<g>
	<defs>
		<rect id="SVGID_13_" y="0" width="8291.3" height="2267.7"/>
	</defs>
	<clipPath id="SVGID_14_">
		<use xlink:href="#SVGID_13_"  overflow="visible"/>
	</clipPath>
	<path clip-path="url(#SVGID_14_)" fill="#004F9F" d="M6208.5,1745.5l-42,56.5h45.2L6208.5,1745.5z M6212.5,1816.1h-56.4l-19.5,26.4
		h-20.3l75.9-99.5c3.6-5,7.3-6.8,12.7-6.8h19.8l7.1,106.3H6214L6212.5,1816.1z"/>
	<path clip-path="url(#SVGID_14_)" fill="#004F9F" d="M6265.4,1871.3l3-9.7c4,1.5,9.9,3,14.4,3c5.5,0,8.3-1.5,9.6-5
		c1.6-4.6,0.6-9-5.6-16.5c-29.3-5.6-41.2-28-29.5-59.9c13.5-36.6,40.4-48.6,71.8-48.6c14.5,0,27.4,3,38.1,7.1l-5.2,14.3
		c-8.9-4-20.9-6.9-33.9-6.9c-21.9,0-43.4,8-53.3,37.9c-9.5,28.5,2.7,43,32.4,43c11.4,0,22.2-0.9,33.6-4.3l-5.3,14.6
		c-10.1,3.4-21.5,4.1-33.3,4.1h-1.3c5.3,7.4,7.1,12.4,4.1,20.1c-2.7,6.8-8.7,10.8-20.6,10.8
		C6276.8,1875.2,6269,1873.2,6265.4,1871.3"/>
	<path clip-path="url(#SVGID_14_)" fill="#004F9F" d="M6467.4,1791.1c9.6-26.6,1.6-42.4-28.9-42.4c-24.4,0-39.8,9.4-50.5,38.7
		c-9.8,26.7-1.8,42.5,28.6,42.5C6441.2,1830,6456.6,1820.5,6467.4,1791.1 M6370,1785.1c12.6-34.4,33.6-50.6,70-50.6
		c47.1,0,57.1,27.5,45.5,59.2c-12.7,34.4-33.8,50.6-70,50.6C6368.3,1844.3,6358.2,1816.8,6370,1785.1"/>
	<path clip-path="url(#SVGID_14_)" fill="#004F9F" d="M6543.3,1750.5l-33.6,92h-17.5l38.8-106.3h16.7c5.6,0,9.3,1.6,10.5,7.1
		l29.2,85.3l33.8-92.4h17.8l-38.8,106.3h-26.3L6543.3,1750.5z"/>
	<path clip-path="url(#SVGID_14_)" fill="#004F9F" d="M6730.6,1750.3l-28.4,78.1h29.6c27.8,0,41.7-9.4,51.8-37.5
		c8.9-24.8,0.9-40.6-23.5-40.6H6730.6z M6717,1736.2h44.3c40.1,0,51.5,26.9,40.3,57.4c-12.1,33.4-32.1,48.9-70.3,48.9h-53
		L6717,1736.2z"/>
</g>
<polygon fill="#004F9F" points="6817.7,1773.3 6841.3,1736.2 6861.7,1736.2 6831.6,1773.3 "/>
<g>
	<defs>
		<rect id="SVGID_15_" y="0" width="8291.3" height="2267.7"/>
	</defs>
	<clipPath id="SVGID_16_">
		<use xlink:href="#SVGID_15_"  overflow="visible"/>
	</clipPath>
	<path clip-path="url(#SVGID_16_)" fill="#004F9F" d="M6909.2,1745.5l-42,56.5h45.2L6909.2,1745.5z M6913.2,1816.1h-56.4l-19.5,26.4
		H6817l75.9-99.5c3.6-5,7.3-6.8,12.7-6.8h19.8l7.1,106.3h-17.9L6913.2,1816.1z"/>
	<path clip-path="url(#SVGID_16_)" fill="#004F9F" d="M6957.1,1736.2h18.4l5.5,93.9l69.4-93.9h21.6l-75.9,99.5
		c-3.6,5-7.1,6.8-11.4,6.8h-20.4L6957.1,1736.2z"/>
	<path clip-path="url(#SVGID_16_)" fill="#004F9F" d="M7120,1745.5l-42,56.5h45.2L7120,1745.5z M7124,1816.1h-56.4l-19.5,26.4h-20.3
		l75.9-99.5c3.6-5,7.3-6.8,12.7-6.8h19.8l7.1,106.3h-17.9L7124,1816.1z"/>
	<path clip-path="url(#SVGID_16_)" fill="#004F9F" d="M7210.4,1750.5l-33.6,92h-17.5l38.8-106.3h16.7c5.6,0,9.3,1.6,10.5,7.1
		l29.2,85.3l33.8-92.4h17.8l-38.8,106.3h-26.3L7210.4,1750.5z"/>
	<path clip-path="url(#SVGID_16_)" fill="#004F9F" d="M7386.2,1748.9c-21.9,0-43.4,8-53.3,37.9c-9.5,28.5,2.7,43,32.4,43
		c11.4,0,22.2-0.9,33.6-4.3l-5.3,14.6c-10.1,3.4-21.5,4.1-33.3,4.1c-40.3,0-58.5-24.2-44.9-61.3c13.5-36.6,40.4-48.6,71.8-48.6
		c14.5,0,27.4,3,38.1,7.1l-5.2,14.3C7411.2,1751.9,7399.2,1748.9,7386.2,1748.9"/>
</g>
<polygon fill="#004F9F" points="7457.4,1736.2 7545.9,1736.2 7540.7,1750.1 7471.1,1750.1 7459.3,1782.4 7521.9,1782.4 
	7516.7,1796.3 7454.2,1796.3 7442.4,1828.6 7512.1,1828.6 7507.1,1842.5 7418.6,1842.5 "/>
<g>
	<defs>
		<rect id="SVGID_17_" y="0" width="8291.3" height="2267.7"/>
	</defs>
	<clipPath id="SVGID_18_">
		<use xlink:href="#SVGID_17_"  overflow="visible"/>
	</clipPath>
	<path clip-path="url(#SVGID_18_)" fill="#004F9F" d="M7583.6,1750.1l-15.3,41.6h25.5c24,0,33.6-3.1,38.5-17.3
		c6.2-17.6,1.3-24.4-25.2-24.4H7583.6z M7596.3,1805.6h-33l-13.5,36.9H7531l38.8-106.3h41.8c37.7,0,48,16.4,38.9,40.7
		c-6.5,17.9-20.3,24.7-37,26.3l15.4,39.3h-19.2L7596.3,1805.6z"/>
</g>
</svg>
